<svg xmlns="http://www.w3.org/2000/svg" viewBox="0 0 64 64"><title>1</title><g id="Layer_36" data-name="Layer 36"><path d="M62,34.43,57,7.63A2,2,0,0,0,55,6H45.19a2,2,0,0,0,0,4h8.15L57.6,32.8H40.16l-.22,0-.16,0-.23.07-.12.05-.24.13-.09.06-.22.18-.07.07-.17.21-.07.1a2,2,0,0,0-.12.21l-.06.15a2,2,0,0,0-.06.2c0,.06,0,.13,0,.19s0,.06,0,.1l-.87,7.81-10.84,0-.81-7.77s0-.06,0-.1a2.07,2.07,0,0,0-.1-.39l-.07-.17-.1-.19-.09-.13-.15-.18-.1-.1-.19-.16-.11-.08L24.59,33l-.14-.06-.22-.07-.16,0-.22,0H6.4L10.66,10h8.15a2,2,0,0,0,0-4H9A2,2,0,0,0,7,7.63L2,34.43a2,2,0,0,0,0,.44V56a2,2,0,0,0,2,2H60a2,2,0,0,0,2-2V34.87A2,2,0,0,0,62,34.43ZM58,54H6V36.8h16l.62,6a4.05,4.05,0,0,0,4,3.63H37.39a4.05,4.05,0,0,0,4-3.63l.62-6H58Z" id="id_101" style="fill: rgb(186, 144, 198);"></path><path d="M20.59,18.42l10,10a2,2,0,0,0,.31.25l.15.08.2.1.2.06.17.05a2,2,0,0,0,.78,0l.17-.05.2-.06.2-.1.15-.08a2,2,0,0,0,.31-.25l10-10a2,2,0,1,0-2.83-2.83L34,22.18V4a2,2,0,0,0-4,0V22.18l-6.59-6.59a2,2,0,1,0-2.83,2.83Z" id="id_102" style="fill: rgb(186, 144, 198);"></path></g></svg>